<svg t="1712812463892" class="icon" viewBox="0 0 1518 1024" version="1.1"
  xmlns="http://www.w3.org/2000/svg" p-id="1970" width="200" height="200">
  <path
    d="M368.681967 469.806163v397.94244h-32.654689V936.335153h-39.56016v70.225137H45.412255L46.816758 469.572079h160.815562zM301.616961 786.521529v-75.140896h-59.808408v75.140896z m0-144.429698v-75.140896h-59.808408v75.140896z m-128.746083 144.429698v-75.140896H112.945428v75.140896z m0-144.429698v-75.140896H112.945428v75.140896zM1472.387028 469.572079V1006.56029h-251.054863v-70.225137H1182.123131v-70.225136h-32.537647V468.167577z m-68.703592 316.94945v-75.140896h-59.808407v75.140896z m0-144.429698v-75.140896h-59.808407v75.140896z m-128.746083 144.429698v-75.140896h-59.808408v75.140896z m0-144.429698v-75.140896h-59.808408v75.140896zM1182.123131 289.912772H336.261362L758.899642 17.556284z m-380.503198-116.339643a42.486208 42.486208 0 1 0-42.60325 42.486208 42.603249 42.603249 0 0 0 42.60325-42.486208z"
    fill="#D3EEE4" p-id="1971"></path>
  <path
    d="M468.050535 437.151475l-9.480394 358.616363h-29.728641v71.395556H368.681967v-99.134485l0.351125-298.222746h-0.351125V365.872961h60.042491v71.278514h39.326077zM1149.585484 469.572079v397.591315h-60.276575v-71.395556h-29.728641l-9.363352-358.616363h38.974951v-71.278514h60.393617v103.699118zM968.638716 437.151475L959.743532 795.88488h-30.313851v71.395556h-81.929326V631.441019a88.249588 88.249588 0 0 0-176.382134 0v235.722375h-81.929326V795.88488h-30.196809L550.096902 437.151475h39.091993v-71.278514H929.312639v71.278514z"
    fill="#06C7CA" p-id="1972"></path>
  <path
    d="M847.383314 851.011612v16.151782H671.001179V631.441019a88.249588 88.249588 0 0 1 176.382135 0z"
    fill="#06C7CA" p-id="1973"></path>
  <path
    d="M1221.332165 936.803321v69.522885h-924.630963v-69.405843h39.091992v-0.117042h885.538971zM1149.585484 867.163394h32.420605v69.639927H336.027278v-69.405844h32.537647v-0.234083h781.020559zM1089.308909 795.767838v71.395556H929.429681v-71.395556h159.879228zM588.720728 795.767838v71.395556H428.8415v-71.395556H588.720728zM588.603686 365.872961v71.278514H428.724458v-71.278514h159.879228zM1089.191867 365.872961v71.278514H929.312639v-71.278514h159.879228z"
    fill="#D3EEE4" p-id="1974"></path>
  <path
    d="M864.939598 851.011612h-35.112569V631.441019a70.225136 70.225136 0 0 0-141.269566 0v219.570593h-35.112568V631.441019a105.337705 105.337705 0 0 1 105.337705-105.337705 105.337705 105.337705 0 0 1 105.337704 105.337705zM351.125682 362.71283h35.112569v504.450564h-35.112569zM1132.0292 362.71283h35.112568v106.859249h-35.112568zM468.167577 454.707759h-39.443119a17.556284 17.556284 0 0 1-17.556284-17.556284v-71.278514h35.112568v53.722229H468.167577zM588.603686 454.707759H550.096902v-35.112569h21.535709v-53.722229h35.112568v71.278514a17.556284 17.556284 0 0 1-18.141493 17.556284z"
    fill="#18252F" p-id="1975"></path>
  <path
    d="M476.126425 795.88488l-35.112568-0.936335 9.480394-358.616364A17.556284 17.556284 0 0 1 468.167577 419.59519h81.929325a17.556284 17.556284 0 0 1 17.556285 17.088117l9.480393 358.616364-35.112568 0.936335-9.012226-341.528247h-46.816758z"
    fill="#18252F" p-id="1976"></path>
  <path
    d="M606.277012 867.163394h-35.112569v-53.839272H446.397784v53.839272h-35.112568V795.88488a17.556284 17.556284 0 0 1 17.556284-17.556284H588.720728a17.556284 17.556284 0 0 1 17.556284 17.556284zM1032.625519 437.467488l35.100864-0.912927 9.38676 358.616364-35.100864 0.912926zM941.496701 795.299671l9.585731-358.60466 35.100864 0.936335-9.585731 358.616364z"
    fill="#18252F" p-id="1977"></path>
  <path
    d="M1089.191867 454.707759H929.312639a17.556284 17.556284 0 0 1-17.556284-17.556284v-71.278514h35.112569v53.722229h124.766659v-53.722229h35.112568v71.278514a17.556284 17.556284 0 0 1-17.556284 17.556284zM1106.865193 867.163394h-35.112568v-53.839272H946.985965v53.839272h-35.112568V795.88488a17.556284 17.556284 0 0 1 17.556284-17.556284h159.879228a17.556284 17.556284 0 0 1 17.556284 17.556284z"
    fill="#18252F" p-id="1978"></path>
  <path
    d="M1182.123131 383.429245H336.261362a17.556284 17.556284 0 0 1-17.556284-17.556284v-75.960189a17.556284 17.556284 0 0 1 8.07589-14.747279L749.068122 2.809005a17.556284 17.556284 0 0 1 18.960787 0l422.63828 272.356488a17.556284 17.556284 0 0 1 8.075891 14.747279v75.960189a17.556284 17.556284 0 0 1-16.619949 17.556284z m-827.720276-35.112568h809.578782v-48.80647L758.899642 38.389741 353.817646 299.510207z"
    fill="#18252F" p-id="1979"></path>
  <path
    d="M759.016683 234.083788A60.159534 60.159534 0 1 1 819.293259 173.573129 60.159534 60.159534 0 0 1 759.016683 234.083788z m0-85.089457a25.046965 25.046965 0 1 0 25.164008 24.578798 25.046965 25.046965 0 0 0-25.164008-25.046965zM336.261362 272.356488h845.276559v35.112568H336.261362zM0 452.015795h368.681967v35.112568H0zM1472.387028 452.015795h45.880423v35.112568h-45.880423zM1403.683436 659.648115h-59.808407a17.556284 17.556284 0 0 1-17.556285-17.556284v-75.140896a17.556284 17.556284 0 0 1 17.556285-17.556284h59.808407a17.556284 17.556284 0 0 1 17.556285 17.556284v75.140896a17.556284 17.556284 0 0 1-17.556285 17.556284z m-42.252123-35.112568h24.695839v-40.028328h-24.695839zM1403.683436 804.077813h-59.808407a17.556284 17.556284 0 0 1-17.556285-17.556284v-75.140896a17.556284 17.556284 0 0 1 17.556285-17.556285h59.808407a17.556284 17.556284 0 0 1 17.556285 17.556285v75.140896a17.556284 17.556284 0 0 1-17.556285 17.556284z m-42.252123-35.112568h24.695839v-40.028328h-24.695839zM1274.820311 659.648115h-59.808408a17.556284 17.556284 0 0 1-17.556284-17.556284v-75.140896a17.556284 17.556284 0 0 1 17.556284-17.556284h59.808408a17.556284 17.556284 0 0 1 17.556284 17.556284v75.140896a17.556284 17.556284 0 0 1-17.556284 17.556284z m-42.252124-35.112568h24.69584v-40.028328h-24.69584zM1274.820311 804.077813h-59.808408a17.556284 17.556284 0 0 1-17.556284-17.556284v-75.140896a17.556284 17.556284 0 0 1 17.556284-17.556285h59.808408a17.556284 17.556284 0 0 1 17.556284 17.556285v75.140896a17.556284 17.556284 0 0 1-17.556284 17.556284z m-42.252124-35.112568h24.69584v-40.028328h-24.69584zM301.616961 659.648115h-59.808408a17.556284 17.556284 0 0 1-17.556284-17.556284v-75.140896a17.556284 17.556284 0 0 1 17.556284-17.556284h59.808408a17.556284 17.556284 0 0 1 17.556284 17.556284v75.140896a17.556284 17.556284 0 0 1-17.556284 17.556284z m-42.252124-35.112568h24.69584v-40.028328h-24.69584zM301.616961 804.077813h-59.808408a17.556284 17.556284 0 0 1-17.556284-17.556284v-75.140896a17.556284 17.556284 0 0 1 17.556284-17.556285h59.808408a17.556284 17.556284 0 0 1 17.556284 17.556285v75.140896a17.556284 17.556284 0 0 1-17.556284 17.556284z m-42.252124-35.112568h24.69584v-40.028328h-24.69584zM172.753836 659.648115H112.945428a17.556284 17.556284 0 0 1-17.556284-17.556284v-75.140896a17.556284 17.556284 0 0 1 17.556284-17.556284h59.808408a17.556284 17.556284 0 0 1 17.556284 17.556284v75.140896a17.556284 17.556284 0 0 1-17.556284 17.556284z m-42.252124-35.112568h24.69584v-40.028328h-24.69584zM172.753836 804.077813H112.945428a17.556284 17.556284 0 0 1-17.556284-17.556284v-75.140896a17.556284 17.556284 0 0 1 17.556284-17.556285h59.808408a17.556284 17.556284 0 0 1 17.556284 17.556285v75.140896a17.556284 17.556284 0 0 1-17.556284 17.556284z m-42.252124-35.112568h24.69584v-40.028328h-24.69584zM353.583562 936.335153h-35.112568v-68.937676a17.790368 17.790368 0 0 1 17.556284-17.790367h813.558206v35.112568h-795.88488z"
    fill="#18252F" p-id="1980"></path>
  <path
    d="M1221.332165 1023.88249h-924.630963a17.556284 17.556284 0 0 1-17.556284-17.556284V936.335153a17.673326 17.673326 0 0 1 17.556284-17.673326H1182.123131v35.112568H314.257486v34.410317h907.074679z"
    fill="#18252F" p-id="1981"></path>
  <path
    d="M296.350076 1023.999532H45.412255A17.556284 17.556284 0 0 1 27.855971 1006.56029l0.819293-536.520043A17.790368 17.790368 0 0 1 46.816758 451.781711h322.450418A17.90741 17.90741 0 0 1 386.238251 469.806163v397.94244a17.790368 17.790368 0 0 1-17.556284 17.790368h-15.215447V936.335153a17.673326 17.673326 0 0 1-17.556284 17.673326h-21.886834V1006.56029a17.556284 17.556284 0 0 1-17.673326 17.439242z m-233.381537-35.112568h215.825253V936.335153a17.556284 17.556284 0 0 1 17.556284-17.556284h21.769792v-51.381392a17.556284 17.556284 0 0 1 17.556284-17.556284H351.125682v-362.829871H63.436707zM1472.387028 1023.88249h-251.054863a17.556284 17.556284 0 0 1-17.556284-17.556284v-51.966601H1182.123131a17.556284 17.556284 0 0 1-17.556284-17.556284v-52.083643h-14.981363a17.556284 17.556284 0 0 1-17.556284-17.556284v-397.94244a17.556284 17.556284 0 0 1 17.556284-17.556285h322.801544a17.556284 17.556284 0 0 1 17.556284 17.556285V1006.56029a17.556284 17.556284 0 0 1-17.556284 17.3222z m-234.083788-35.112568h216.527504V487.128363H1167.141768v362.829872H1182.123131a17.556284 17.556284 0 0 1 17.556284 17.556284v52.083643h21.769792a17.556284 17.556284 0 0 1 17.556284 17.556284z"
    fill="#18252F" p-id="1982"></path>
</svg>